
    <svg xmlns="http://www.w3.org/2000/svg" viewBox="0 0 50 50">
        <path stroke-width="0.2" stroke="black" d="M22.18181818181818,22.454545454545453L26.272727272727273,10.181818181818182M22.18181818181818,22.454545454545453L21,21.666666666666668M22.18181818181818,22.454545454545453L24.394736842105264,25.55263157894737M21,21.666666666666668L21,12.5M21,21.666666666666668L17,20.333333333333332M17,20.333333333333332L12.51063829787234,17.340425531914892M17,20.333333333333332L17,27M17,27L13.333333333333334,27M17,27L22.963414634146343,28.98780487804878M24.394736842105264,25.55263157894737L22.963414634146343,28.98780487804878M24.394736842105264,25.55263157894737L32.92857142857143,21.285714285714285M22.963414634146343,28.98780487804878L23.5,36.5M13.5,27.5L13.5,33.75M13.5,27.5L17.666666666666668,35.833333333333336M13.5,27.5L13.333333333333334,27M23.5,36.5L22.13953488372093,38.06976744186046M23.5,36.5L39,35.392857142857146M13.333333333333334,27L11.291666666666668,26.125M21,12.5L23.878048780487806,10.341463414634147M21,12.5L12.551724137931036,16.724137931034484M12.51063829787234,17.340425531914892L12.551724137931036,16.724137931034484M12.51063829787234,17.340425531914892L9.254237288135593,22.45762711864407M11.291666666666668,26.125L9.254237288135593,22.45762711864407M11.291666666666668,26.125L9.428571428571429,31.714285714285715M23.878048780487806,10.341463414634147L9.4,0M23.878048780487806,10.341463414634147L26.272727272727273,10.181818181818182M9.254237288135593,22.45762711864407L0,24.000000000000004M9.428571428571429,31.714285714285715L2.4000000000000004,36.4M9.428571428571429,31.714285714285715L13.5,33.75M13.5,33.75L15.423076923076923,35.19230769230769M17.666666666666668,35.833333333333336L15.423076923076923,35.19230769230769M17.666666666666668,35.833333333333336L22.13953488372093,38.06976744186046M12.551724137931036,16.724137931034484L8.391566265060241,10.186746987951807M6.5,41.5L19.52325581395349,48.01162790697674M6.5,41.5L4.75,38.75M15.423076923076923,35.19230769230769L4.75,38.75M32.92857142857143,21.285714285714285L39,32.416666666666664M32.92857142857143,21.285714285714285L34.17857142857143,16.285714285714285M26.272727272727273,10.181818181818182L28.666666666666668,9.583333333333332M28.666666666666668,9.583333333333332L34.39189189189189,12.445945945945946M5.5,12.5L0,18M5.5,12.5L8.391566265060241,10.186746987951807M34.17857142857143,16.285714285714285L46.04545454545455,24.196969696969695M34.17857142857143,16.285714285714285L34.39189189189189,12.445945945945946M22.13953488372093,38.06976744186046L19.52325581395349,48.01162790697674M39,32.416666666666664L39,35.392857142857146M39,32.416666666666664L46.04545454545455,24.196969696969695M46.04545454545455,24.196969696969695L50,22M8.391566265060241,10.186746987951807L7.033333333333333,0M34.39189189189189,12.445945945945946L37.903141361256544,10.782722513089004M39,35.392857142857146L39.43457943925233,35.92056074766355M37.903141361256544,10.782722513089004L39.078947368421055,10.921052631578947M39.43457943925233,35.92056074766355L28.874999999999993,50M39.43457943925233,35.92056074766355L39.49438202247191,35.96629213483146M19.937500000000004,50L19.52325581395349,48.01162790697674M4.75,38.75L2.4000000000000004,36.4M2.4000000000000004,36.4L0,35.5M39.078947368421055,10.921052631578947L50,13.833333333333332M39.49438202247191,35.96629213483146L41.833333333333336,50M39.49438202247191,35.96629213483146L50,36.66666666666667M39.078947368421055,10.921052631578947L50,1.7763568394002505e-15M37.903141361256544,10.782722513089004L39.86363636363636,0M28.666666666666668,9.583333333333332L27.192307692307693,0M5.5,12.5L0,12.5M6.5,41.5L2.25,50"/>
        <path stroke="none" fill="black" d="M48.2,29A0.2,0.2,0,1,1,47.8,29A0.2,0.2,0,1,1,48.2,29M11.2,35A0.2,0.2,0,1,1,10.8,35A0.2,0.2,0,1,1,11.2,35M43.2,20A0.2,0.2,0,1,1,42.8,20A0.2,0.2,0,1,1,43.2,20M14.2,31A0.2,0.2,0,1,1,13.8,31A0.2,0.2,0,1,1,14.2,31M20.2,18A0.2,0.2,0,1,1,19.8,18A0.2,0.2,0,1,1,20.2,18M5.2,17A0.2,0.2,0,1,1,4.8,17A0.2,0.2,0,1,1,5.2,17M1.2,12A0.2,0.2,0,1,1,0.8,12A0.2,0.2,0,1,1,1.2,12M34.2,1A0.2,0.2,0,1,1,33.8,1A0.2,0.2,0,1,1,34.2,1M25.2,19A0.2,0.2,0,1,1,24.8,19A0.2,0.2,0,1,1,25.2,19M12.2,38A0.2,0.2,0,1,1,11.8,38A0.2,0.2,0,1,1,12.2,38M35.2,46A0.2,0.2,0,1,1,34.8,46A0.2,0.2,0,1,1,35.2,46M47.2,5A0.2,0.2,0,1,1,46.8,5A0.2,0.2,0,1,1,47.2,5M21.2,3A0.2,0.2,0,1,1,20.8,3A0.2,0.2,0,1,1,21.2,3M1.2,13A0.2,0.2,0,1,1,0.8,13A0.2,0.2,0,1,1,1.2,13M22.2,18A0.2,0.2,0,1,1,21.8,18A0.2,0.2,0,1,1,22.2,18M18.2,24A0.2,0.2,0,1,1,17.8,24A0.2,0.2,0,1,1,18.2,24M41.2,23A0.2,0.2,0,1,1,40.8,23A0.2,0.2,0,1,1,41.2,23M13.2,31A0.2,0.2,0,1,1,12.8,31A0.2,0.2,0,1,1,13.2,31M30.2,29A0.2,0.2,0,1,1,29.8,29A0.2,0.2,0,1,1,30.2,29M16.2,10A0.2,0.2,0,1,1,15.8,10A0.2,0.2,0,1,1,16.2,10M31.2,43A0.2,0.2,0,1,1,30.8,43A0.2,0.2,0,1,1,31.2,43M1.2,45A0.2,0.2,0,1,1,0.8,45A0.2,0.2,0,1,1,1.2,45M45.2,3A0.2,0.2,0,1,1,44.8,3A0.2,0.2,0,1,1,45.2,3M47.2,44A0.2,0.2,0,1,1,46.8,44A0.2,0.2,0,1,1,47.2,44M7.2,29A0.2,0.2,0,1,1,6.8,29A0.2,0.2,0,1,1,7.2,29M16.2,30A0.2,0.2,0,1,1,15.8,30A0.2,0.2,0,1,1,16.2,30M16.2,24A0.2,0.2,0,1,1,15.8,24A0.2,0.2,0,1,1,16.2,24M7.2,48A0.2,0.2,0,1,1,6.8,48A0.2,0.2,0,1,1,7.2,48"/>
        <path stroke-width="0.2" stroke="blue" fill="none" d="M53,29A5,5,0,1,1,43,29A5,5,0,1,1,53,29M16,35A5,5,0,1,1,6,35A5,5,0,1,1,16,35M48,20A5,5,0,1,1,38,20A5,5,0,1,1,48,20M19,31A5,5,0,1,1,9,31A5,5,0,1,1,19,31M25,18A5,5,0,1,1,15,18A5,5,0,1,1,25,18M10,17A5,5,0,1,1,0,17A5,5,0,1,1,10,17M6,12A5,5,0,1,1,-4,12A5,5,0,1,1,6,12M39,1A5,5,0,1,1,29,1A5,5,0,1,1,39,1M30,19A5,5,0,1,1,20,19A5,5,0,1,1,30,19M17,38A5,5,0,1,1,7,38A5,5,0,1,1,17,38M40,46A5,5,0,1,1,30,46A5,5,0,1,1,40,46M52,5A5,5,0,1,1,42,5A5,5,0,1,1,52,5M26,3A5,5,0,1,1,16,3A5,5,0,1,1,26,3M6,13A5,5,0,1,1,-4,13A5,5,0,1,1,6,13M27,18A5,5,0,1,1,17,18A5,5,0,1,1,27,18M23,24A5,5,0,1,1,13,24A5,5,0,1,1,23,24M46,23A5,5,0,1,1,36,23A5,5,0,1,1,46,23M18,31A5,5,0,1,1,8,31A5,5,0,1,1,18,31M35,29A5,5,0,1,1,25,29A5,5,0,1,1,35,29M21,10A5,5,0,1,1,11,10A5,5,0,1,1,21,10M36,43A5,5,0,1,1,26,43A5,5,0,1,1,36,43M6,45A5,5,0,1,1,-4,45A5,5,0,1,1,6,45M50,3A5,5,0,1,1,40,3A5,5,0,1,1,50,3M52,44A5,5,0,1,1,42,44A5,5,0,1,1,52,44M12,29A5,5,0,1,1,2,29A5,5,0,1,1,12,29M21,30A5,5,0,1,1,11,30A5,5,0,1,1,21,30M21,24A5,5,0,1,1,11,24A5,5,0,1,1,21,24M12,48A5,5,0,1,1,2,48A5,5,0,1,1,12,48"/>
        <path stroke="none" fill="red" d="M0.25,0A0.25,0.25,0,1,1,-0.25,0A0.25,0.25,0,1,1,0.25,0M0.25,18A0.25,0.25,0,1,1,-0.25,18A0.25,0.25,0,1,1,0.25,18M0.25,24A0.25,0.25,0,1,1,-0.25,24A0.25,0.25,0,1,1,0.25,24M0.25,36A0.25,0.25,0,1,1,-0.25,36A0.25,0.25,0,1,1,0.25,36M0.25,50A0.25,0.25,0,1,1,-0.25,50A0.25,0.25,0,1,1,0.25,50M2.25,36A0.25,0.25,0,1,1,1.75,36A0.25,0.25,0,1,1,2.25,36M2.25,50A0.25,0.25,0,1,1,1.75,50A0.25,0.25,0,1,1,2.25,50M5.25,39A0.25,0.25,0,1,1,4.75,39A0.25,0.25,0,1,1,5.25,39M7.25,0A0.25,0.25,0,1,1,6.75,0A0.25,0.25,0,1,1,7.25,0M7.25,42A0.25,0.25,0,1,1,6.75,42A0.25,0.25,0,1,1,7.25,42M8.25,10A0.25,0.25,0,1,1,7.75,10A0.25,0.25,0,1,1,8.25,10M9.25,0A0.25,0.25,0,1,1,8.75,0A0.25,0.25,0,1,1,9.25,0M9.25,22A0.25,0.25,0,1,1,8.75,22A0.25,0.25,0,1,1,9.25,22M13.25,17A0.25,0.25,0,1,1,12.75,17A0.25,0.25,0,1,1,13.25,17M18.25,36A0.25,0.25,0,1,1,17.75,36A0.25,0.25,0,1,1,18.25,36M20.25,48A0.25,0.25,0,1,1,19.75,48A0.25,0.25,0,1,1,20.25,48M20.25,50A0.25,0.25,0,1,1,19.75,50A0.25,0.25,0,1,1,20.25,50M21.25,13A0.25,0.25,0,1,1,20.75,13A0.25,0.25,0,1,1,21.25,13M22.25,38A0.25,0.25,0,1,1,21.75,38A0.25,0.25,0,1,1,22.25,38M23.25,29A0.25,0.25,0,1,1,22.75,29A0.25,0.25,0,1,1,23.25,29M24.25,10A0.25,0.25,0,1,1,23.75,10A0.25,0.25,0,1,1,24.25,10M24.25,26A0.25,0.25,0,1,1,23.75,26A0.25,0.25,0,1,1,24.25,26M24.25,37A0.25,0.25,0,1,1,23.75,37A0.25,0.25,0,1,1,24.25,37M26.25,10A0.25,0.25,0,1,1,25.75,10A0.25,0.25,0,1,1,26.25,10M27.25,0A0.25,0.25,0,1,1,26.75,0A0.25,0.25,0,1,1,27.25,0M29.25,10A0.25,0.25,0,1,1,28.75,10A0.25,0.25,0,1,1,29.25,10M29.25,50A0.25,0.25,0,1,1,28.75,50A0.25,0.25,0,1,1,29.25,50M33.25,21A0.25,0.25,0,1,1,32.75,21A0.25,0.25,0,1,1,33.25,21M34.25,12A0.25,0.25,0,1,1,33.75,12A0.25,0.25,0,1,1,34.25,12M34.25,16A0.25,0.25,0,1,1,33.75,16A0.25,0.25,0,1,1,34.25,16M38.25,11A0.25,0.25,0,1,1,37.75,11A0.25,0.25,0,1,1,38.25,11M39.25,11A0.25,0.25,0,1,1,38.75,11A0.25,0.25,0,1,1,39.25,11M39.25,32A0.25,0.25,0,1,1,38.75,32A0.25,0.25,0,1,1,39.25,32M39.25,35A0.25,0.25,0,1,1,38.75,35A0.25,0.25,0,1,1,39.25,35M39.25,36A0.25,0.25,0,1,1,38.75,36A0.25,0.25,0,1,1,39.25,36M40.25,0A0.25,0.25,0,1,1,39.75,0A0.25,0.25,0,1,1,40.25,0M42.25,50A0.25,0.25,0,1,1,41.75,50A0.25,0.25,0,1,1,42.25,50M50.25,0A0.25,0.25,0,1,1,49.75,0A0.25,0.25,0,1,1,50.25,0M50.25,14A0.25,0.25,0,1,1,49.75,14A0.25,0.25,0,1,1,50.25,14M50.25,22A0.25,0.25,0,1,1,49.75,22A0.25,0.25,0,1,1,50.25,22M50.25,37A0.25,0.25,0,1,1,49.75,37A0.25,0.25,0,1,1,50.25,37M50.25,50A0.25,0.25,0,1,1,49.75,50A0.25,0.25,0,1,1,50.25,50"/>
    </svg>
